# xmcd CD database file
#
# Track frame offsets:
#	150
#	11627
#	24208
#	36096
#	47448
#	58802
#	72712
#	83612
#	96552
#	109699
#	120749
#	133477
#	144377
#	157272
#	169685
#	181770
#	192839
#	205811
#	219137
#	231297
#	244048
#	266249
#
# Disc length: 3767 seconds
#
# Revision: 1
# Processed by: cddbd v1.5.2PL0 Copyright (c) Steve Scherf et al.
# Submitted via: CDex 1.70beta2
#
DISCID=3d0eb516
DTITLE=Various Artist - Something Swingin' 2.1
DYEAR=2003
DGENRE=Jazz
TTITLE0=Anthony Quinn - I Love You, You Love Me
TTITLE1=Bobby Vinton - Blue Velvet
TTITLE2=Perry Como - Magic Moments
TTITLE3=Julie London - Fly Me To The Moon
TTITLE4=Doris Day - Perhaps, Perhaps, Perhaps
TTITLE5=Dean Martin - That's Amore
TTITLE6=Perez Prado - Cherry Pink And Apple Blossom White
TTITLE7=Dusty Springfield - Wishin' And Hopin'
TTITLE8=Petula Clark - Don't Sleep In The Subway
TTITLE9=Jack Jones - Wives and Lovers
TTITLE10=Tom Jones - Help Yourself
TTITLE11=Ray Conniff - It's Wonderful
TTITLE12=Bobby Darin - Beyond The Sea (La Mer)
TTITLE13=Johnny Mathis - A Certain Smile
TTITLE14=Vic Damone - On The Street Where You Live
TTITLE15=Dinah Washington - What A Difference A Day Makes
TTITLE16=John Barry - The Girl With The Sun In Her Hair
TTITLE17=Cilla Black - You're My World
TTITLE18=Jackie Trent - Make It Easy On Yourself
TTITLE19=Tony Bennett - I Left My Heart In San Francisco
TTITLE20=Scott Walker - If You Go Away
TTITLE21=Dionne Warwick - Valley Of The Dolls Theme
EXTD=YEAR: 2003
EXTT0=
EXTT1=
EXTT2=
EXTT3=
EXTT4=
EXTT5=
EXTT6=
EXTT7=
EXTT8=
EXTT9=
EXTT10=
EXTT11=
EXTT12=
EXTT13=
EXTT14=
EXTT15=
EXTT16=
EXTT17=
EXTT18=
EXTT19=
EXTT20=
EXTT21=
PLAYORDER=
